<svg version="1.1" xmlns="http://www.w3.org/2000/svg" xmlns:xlink="http://www.w3.org/1999/xlink" x="0px" y="0px" viewBox="0 0 496 512" style="enable-background:new 0 0 496 512;" xml:space="preserve" fit="" height="100%" width="100%" preserveAspectRatio="xMidYMid meet" focusable="false">
<path fill="#00aeff" d="M492.6,290.5c-7.3-23.7-29.9-44.6-59.7-62.3c12.8,0.1,27.7-1.6,35.4-9.1c0.2-0.2,0.3-0.6,0.6-0.8c0,0,0,0,0.1,0
	c15.5-15.1-3.2-46.9-49.3-70.9c17.2-32.5,29.2-61.7,35.2-82.6c1.1-3.7,1.4-6.6,1.6-9.1c0.7-7-1.1-10.5-1.1-10.5
	c-1.7,10.2-15.3,46.8-46.6,96.7c0.1,0.1,0.6,0.3,0.8,0.4c0,0,0,0.1-0.1,0.1c-24.5-11.1-55.5-20-92.4-23.5c0,0,0,0,0-0.1
	c0.3,0,1,0.1,1,0.1c-8.6-16.4-33.7-61.7-58.5-86c-14.4-14-26.1-20.1-35.7-22c-15.6-3.5-25.4,4.5-30.4,9.9
	c-16.6,17.9-23.5,47.4-24.1,81.5c-6.3-10.7-14.8-21.9-24.7-24.7c-0.3-0.1-0.6,0-0.9-0.1c-0.1,0-0.1-0.1-0.2-0.1
	c-20.8-5.9-39,26.2-36.7,78.1c-37.1,1.3-68.7,5.6-90,10.8c-3.7,0.9-6.4,2.1-8.7,3.2c-6.4,2.9-8.5,6.2-8.5,6.2
	c9.7-3.7,48.6-10.2,107.9-8c0-0.2-0.1-0.6-0.1-0.9c0,0,0.1,0,0.1,0c2.6,26.6,10.4,57.5,25.5,90.9c0,0,0,0,0,0.1
	c-0.1-0.2-0.4-0.8-0.4-0.9c-9.4,14.9-37,60.3-45.7,94.4c-5,19.4-4.4,32.6-1.2,41.8c4.7,15.3,16.6,19.8,23.8,21.4
	c24.2,5.5,53.6-3.6,83.9-20.6c-6.5,11.1-12.5,24.8-9.9,35.3c0.1,0.3,0.3,0.5,0.4,0.8c0,0,0,0.1,0,0.1c5.3,21,42.2,20.7,86.1-7.3
	c19.5,31.2,38.8,56.1,53.9,71.8c2.7,2.8,5,4.5,7.1,5.9c5.7,4.1,9.6,4.3,9.6,4.3c-8-6.5-32.9-36.7-60.5-88.7
	c-0.1,0.1-0.5,0.4-0.8,0.5c0,0,0-0.1,0-0.1c21.9-15.7,45.1-38.1,66.6-68.3c0,0,0,0,0,0c-0.1,0.2-0.6,0.8-0.6,0.8l-0.1,0
	c18.5,0.7,70.3,1.7,103.7-7.7c19.3-5.4,30.5-12.5,36.9-19.8C496.8,310,494.7,297.5,492.6,290.5z M209.3,384.6
	c9.3-6,18.7-12.6,27.9-19.7c6.5,12.9,13.2,25.3,19.9,36.9c-24.8,13.4-45.4,16.1-52.8,4.4C201.4,400.3,204.7,392.1,209.3,384.6z
	 M269.2,394.7c-5.3-10.9-10.6-22.7-15.8-35.2c26.1,0.8,47.1-8.2,54.3-13.6c6.2-4.6,6.8-6.1,6.8-6.1c0,0.1-0.7,0.9-13.2,5.9
	c-14.3,5.7-31.1,7.3-47.2,5.8c31.2-25.8,60.2-55.4,82.1-81c8.4-9.9,16.4-19.9,24.1-30.1c-0.2-0.1-0.5-0.4-0.7-0.5
	c0.1-0.1,0.2-0.3,0.3-0.4c-1.8-1.4-4.6-3.5-7.6-5.6c-3.5-2.3-6.2-4.1-7.9-5.1c-2.2,2.5-4.3,5-6.5,7.5
	c-31.4,35.9-78.2,78.8-121.9,104.5c-19.9-10.8-39.4-30.7-53.8-59.4c-19.3-38.6-28.9-79.6-30.4-112.2c11.8,0.9,24.4,2.3,37.4,3.9
	c-13.3,22-15.9,44.1-14.8,53c0.9,7.7,1.9,8.9,1.9,8.9c0-0.1-0.5-1,1.5-14.4c2.2-15,9-29.9,18.1-43c6.8,39.9,17.8,79.8,29.1,111.6
	c4.3,12.2,9,24.2,14,35.9c0.2-0.1,0.6-0.3,0.9-0.4c0.1,0.2,0.1,0.4,0.2,0.5c2.2-0.9,5.3-2.2,8.7-3.9c3.7-1.8,6.6-3.3,8.3-4.3
	c-1.1-3.1-2.2-6.2-3.3-9.4c-15.4-45.3-29.2-107.5-29.5-158.2c19.3-12,46.5-19.2,78.8-17.2c43.1,2.6,83.4,14.8,112.4,29.8
	c-6.7,9.9-14.4,20.5-22.5,31.2c-12.4-22.4-30.2-35.8-38.5-39.3c-7.2-3.1-8.7-2.8-8.7-2.8s0.6-0.2,11.7,8.5
	c11.9,9.4,21.4,22.8,28.2,37.1c-38-14.1-78.1-24.5-111.3-30.6c-12.7-2.4-25.4-4.3-38.1-5.8c0,0.3-0.1,0.6-0.1,0.9
	c-0.2,0-0.3-0.1-0.5-0.1c-0.4,2.3-0.8,5.7-1,9.5c-0.3,4.1-0.4,7.4-0.5,9.3c3.2,0.6,6.5,1.2,9.8,1.9c46.9,9.3,107.7,28.5,151.8,53.6
	c0.7,22.8-6.7,49.8-24.5,76.8C327.4,348.3,296.7,377.1,269.2,394.7z M416.6,219.1c-9.9-5.1-20.3-9.9-31-14.4c7.9-12,15.3-24,22-35.6
	c24,14.8,36.6,31.2,30.3,43.4C434.2,218.1,425.4,219.4,416.6,219.1z M169.5,120.7c0.5,11.6,1.6,23.6,3.1,35.8
	c-14.1-0.8-27.8-1.2-41-1.2c0.9-28.2,8.7-47.3,22.5-47.9C160.4,107.7,165.6,113.6,169.5,120.7z M145.2,282.2
	c18.2,33.5,39.4,53.4,60.3,64.6c-28.3,15-54.6,21.7-73.4,12.9c-3.4-1.6-5.8-3.8-7.5-6.5c-4.7-8.3-3.3-20.5-0.6-31.4
	c3.4-14,13.7-35.3,18.5-45C143.4,278.6,144.2,280.4,145.2,282.2z M360.4,326.6c20.1-32.8,26.7-61.2,25.8-85
	c26.9,17,45.6,36.3,47.5,56.9c0.5,5.3-1.3,9.6-4.2,13.2c-5.7,6.2-15.3,10.1-24.6,12.8c-13.4,3.9-36,5.7-47.2,6.4
	C358.6,329.4,359.5,328.1,360.4,326.6z M290.8,117.2c-38.4-1-66.3,7.5-86.5,20.2c1.2-31.8,8.6-57.7,25.5-69.6
	c4.3-3,8.9-3.7,13.5-2.9c8.2,1.8,16.4,8.2,23.4,14.9c10.1,9.7,22.9,28.3,29.2,37.7C294.1,117.5,292.5,117.3,290.8,117.2z"></path>
</svg>