<svg version="1.1" xmlns="http://www.w3.org/2000/svg" xmlns:xlink="http://www.w3.org/1999/xlink" x="0px" y="0px" viewBox="0 0 80 80" style="enable-background:new 0 0 80 80;" xml:space="preserve" fit="" height="100%" width="100%" preserveAspectRatio="xMidYMid meet" focusable="false">
<style type="text/css">
	.worldofwarcraft-st0{fill:#2B374C;}
	.worldofwarcraft-st1{fill:#F4BF2A;}
 </style>
<g>
	<circle class="worldofwarcraft-st0" cx="39.9" cy="40.1" r="28.6"></circle>
	<path class="worldofwarcraft-st1" d="M75.8,40.1c0-7.2-2.2-14.3-6.3-20.3V11c0-0.2-0.2-0.5-0.5-0.5h-8.7c-12.2-8.4-28.2-8.4-40.4,0h-8.7
		c-0.1,0-0.2,0-0.4,0.1c-0.1,0.1-0.1,0.2-0.1,0.4v8.6c-8.5,12.3-8.5,28.5,0,40.8V69c0,0.2,0.2,0.5,0.5,0.5h8.7
		c12.3,8.4,28.4,8.3,40.7-0.1h8.6c0.2,0,0.5-0.2,0.5-0.6l0,0v-8.6C73.6,54.4,75.8,47.3,75.8,40.1z M9,40.1c0-17.1,13.8-31,31-31
		s31,13.8,31,31s-13.8,31-31,31l0,0l0,0C22.8,71.1,9,57.2,9,40.1z"></path>
	<path class="worldofwarcraft-st1" d="M19.4,23.3h11.7c-0.2,1.3-0.4,2.6-0.4,4c0.5,5.2,3.9,19.6,3.9,19.6l5.6-22.5l5.7,22c0,0,3.4-19.4,3.4-20.7
		c-0.1-0.9-0.6-1.9-1.4-2.5h12.4c-1.7,1.5-2.8,3.4-3.5,5.7c-1.1,4.3-4.8,25.8-4.8,27.1c0.1,1.4,0.6,2.7,1.4,3.9H41.7
		c0.2-1.1,0.4-2.1,0.4-3.2c0-2-1.8-11.3-1.8-11.3s-2.4,9.7-2.4,11.5c0,1.1,0.2,2.1,0.7,3.1H26.9c0,0,2.2-1.7,2.2-3.2
		c-0.2-4.4-6.4-27.2-6.9-29C22,26,20.9,24.4,19.4,23.3z"></path>
</g>
</svg>