<?xml version="1.0" encoding="utf-8"?>
<!-- Generator: Adobe Illustrator 19.0.0, SVG Export Plug-In . SVG Version: 6.00 Build 0)  -->
<svg version="1.1" id="Layer_1" xmlns="http://www.w3.org/2000/svg" xmlns:xlink="http://www.w3.org/1999/xlink" x="0px" y="0px"
	 viewBox="0 0 500 500" style="enable-background:new 0 0 500 500;" xml:space="preserve">
<style type="text/css">
	.st0{fill:#672A7A;}
	.st1{fill:#FFFFFF;}
</style>
<g id="XMLID_1_">
	<rect id="XMLID_5_" x="67.5" y="67.5" class="st0" width="365" height="365"/>
	<g id="XMLID_3_">
		<path id="XMLID_4_" class="st1" d="M302.4,207c1.9-1.7,2.8-3.7,2.8-6.2c0-2.3-0.8-4.1-2.2-5.6c-1.1-1.2-3-2.3-5.6-3.4
			c-2.3-1-3.9-1.8-4.6-2.5c-0.8-0.8-1.2-1.8-1.2-3.2c0-1.3,0.5-2.3,1.5-3.1c1-0.8,2.3-1.2,3.9-1.2c2.6,0,4.9,0.7,6.9,2.2v-4.9
			c-1.9-1-4.1-1.4-6.5-1.4c-3.2,0-5.7,0.8-7.8,2.5c-2,1.7-3,3.8-3,6.3c0,2.3,0.6,4.1,1.9,5.5c1.1,1.2,2.9,2.3,5.5,3.5
			c2.5,1.1,4.2,2,5,2.8c0.9,0.8,1.3,1.8,1.3,2.9c0,2.8-1.9,4.3-5.8,4.3c-2.9,0-5.5-1-7.9-2.9v5.3c2.2,1.2,4.7,1.8,7.6,1.8
			C297.5,209.7,300.3,208.8,302.4,207z"/>
		<path id="XMLID_29_" class="st1" d="M348.4,208.9h4.9v-26.4h7.2v-4.1h-7.2v-4.7c0-4.3,1.7-6.5,5.1-6.5c1.2,0,2.3,0.3,3.2,0.8v-4.4
			c-0.9-0.4-2-0.5-3.5-0.5c-2.6,0-4.8,0.8-6.6,2.5c-2.1,1.9-3.1,4.5-3.1,7.9v5h-5.2v4.1h5.2V208.9z"/>
		<path id="XMLID_30_" class="st1" d="M192.5,170.6c0.9,0,1.7-0.3,2.3-0.9c0.6-0.6,0.9-1.4,0.9-2.3c0-0.9-0.3-1.6-0.9-2.2
			c-0.6-0.6-1.4-0.9-2.3-0.9c-0.9,0-1.6,0.3-2.3,0.9c-0.6,0.6-0.9,1.4-0.9,2.2c0,0.9,0.3,1.7,0.9,2.3
			C190.9,170.3,191.7,170.6,192.5,170.6z"/>
		<path id="XMLID_31_" class="st1" d="M217,209.7c3.2,0,6-0.7,8.4-2.1v-4.6c-2.3,1.8-4.8,2.6-7.5,2.6c-3.2,0-5.7-1-7.6-3.1
			c-1.9-2.1-2.8-4.9-2.8-8.4c0-3.7,1-6.7,3.1-8.9c2-2.2,4.5-3.3,7.6-3.3c2.6,0,5,0.8,7.3,2.4v-5c-2.1-1-4.4-1.6-7.1-1.6
			c-4.8,0-8.7,1.5-11.6,4.6c-2.9,3.1-4.3,7.1-4.3,12.1c0,4.5,1.3,8.1,3.9,10.9C209.1,208.2,212.6,209.7,217,209.7z"/>
		<path id="XMLID_34_" class="st1" d="M390.8,180.8h0.9c0.7,0,1.3,0.6,1.9,1.9l1.1,2.5h1.8l-1.4-2.8c-0.6-1.1-1.1-1.8-1.7-1.9v0
			c0.8-0.2,1.5-0.5,1.9-1c0.5-0.5,0.7-1.1,0.7-1.8c0-0.8-0.3-1.4-0.8-2c-0.7-0.6-1.6-0.9-2.9-0.9h-2.9v10.4h1.5V180.8z M390.8,176.1
			h1.3c0.9,0,1.5,0.2,1.9,0.5c0.3,0.3,0.5,0.7,0.5,1.3c0,1.2-0.7,1.8-2.1,1.8h-1.6V176.1z"/>
		<path id="XMLID_35_" class="st1" d="M368.3,200.6c0,6,2.7,9,8,9c1.9,0,3.4-0.3,4.6-1v-4.2c-0.9,0.7-1.9,1-3.2,1
			c-1.6,0-2.8-0.4-3.5-1.3c-0.7-0.8-1-2.3-1-4.4v-17.2h7.7v-4.1h-7.7v-9c-1.7,0.6-3.3,1.1-4.9,1.6v7.5h-5.2v4.1h5.2V200.6z"/>
		<path id="XMLID_40_" class="st1" d="M392.5,188.1c2.3,0,4.2-0.8,5.8-2.3c1.6-1.5,2.4-3.5,2.4-5.8c0-2.3-0.8-4.3-2.4-5.8
			c-1.5-1.5-3.5-2.2-5.7-2.2c-2.3,0-4.3,0.8-5.8,2.3c-1.6,1.6-2.3,3.5-2.3,5.7c0,2.3,0.8,4.2,2.3,5.8
			C388.3,187.4,390.2,188.1,392.5,188.1z M387.4,175c1.4-1.4,3.1-2.1,5.1-2.1c2,0,3.7,0.7,5.1,2c1.4,1.4,2.1,3.1,2.1,5.1
			c0,2-0.7,3.8-2.1,5.1c-1.4,1.4-3.1,2.1-5.1,2.1c-2,0-3.7-0.7-5.1-2c-1.4-1.4-2.1-3.1-2.1-5.2C385.4,178.1,386.1,176.4,387.4,175z"
			/>
		<rect id="XMLID_41_" x="190" y="178.4" class="st1" width="4.9" height="30.5"/>
		<path id="XMLID_44_" class="st1" d="M265.8,209.7c4.6,0,8.3-1.5,11.1-4.4c2.7-2.9,4.1-6.8,4.1-11.7c0-4.9-1.3-8.8-3.8-11.7
			c-2.6-2.8-6.1-4.2-10.7-4.2c-4.6,0-8.3,1.4-11.1,4.1c-3,2.9-4.5,7-4.5,12.3c0,4.7,1.3,8.4,3.9,11.2
			C257.5,208.2,261.2,209.7,265.8,209.7z M258.8,184.8c1.8-2,4.3-3,7.3-3c3.1,0,5.5,1,7.2,2.9c1.8,2,2.6,5,2.6,8.9
			c0,3.7-0.8,6.6-2.5,8.7c-1.7,2.1-4.1,3.1-7.4,3.1c-3.1,0-5.6-1-7.4-3.1c-1.9-2-2.8-4.9-2.8-8.6
			C255.9,189.9,256.9,186.9,258.8,184.8z"/>
		<path id="XMLID_47_" class="st1" d="M336,205.2c2.7-2.9,4.1-6.8,4.1-11.7c0-4.9-1.3-8.8-3.8-11.7c-2.6-2.8-6.1-4.2-10.7-4.2
			c-4.6,0-8.3,1.4-11.1,4.1c-3,2.9-4.5,7-4.5,12.3c0,4.7,1.3,8.4,3.9,11.2c2.7,2.9,6.3,4.4,10.9,4.4
			C329.5,209.7,333.2,208.2,336,205.2z M315,193.8c0-3.9,1-6.9,2.9-9c1.8-2,4.3-3,7.3-3c3.1,0,5.5,1,7.2,2.9c1.8,2,2.7,5,2.7,8.9
			c0,3.7-0.8,6.6-2.5,8.7c-1.7,2.1-4.1,3.1-7.4,3.1c-3.1,0-5.6-1-7.4-3.1C316,200.4,315,197.5,315,193.8z"/>
		<polygon id="XMLID_48_" class="st1" points="264.1,284.1 304.6,284.1 304.6,272.2 264.1,272.2 264.1,234.9 307.8,234.9 307.8,223 
			251,223 251,335.1 310.4,335.1 310.4,323.2 264.1,323.2 		"/>
		<polygon id="XMLID_49_" class="st1" points="322.7,234.9 355.1,234.9 355.1,335.1 368.2,335.1 368.2,234.9 400.5,234.9 400.5,223 
			322.7,223 		"/>
		<path id="XMLID_50_" class="st1" d="M107.9,319.3c-2.4,0-4.4,0.9-6.1,2.6c-1.7,1.7-2.5,3.8-2.5,6.3c0,2.4,0.8,4.5,2.5,6.2
			c1.7,1.7,3.7,2.6,6.1,2.6c2.5,0,4.5-0.9,6.3-2.6c1.7-1.7,2.6-3.8,2.6-6.2c0-2.4-0.9-4.5-2.6-6.2
			C112.4,320.1,110.3,319.3,107.9,319.3z"/>
		<path id="XMLID_51_" class="st1" d="M241.1,179.5c-1.5,1.2-2.6,2.9-3.3,5.2h-0.1v-6.3h-4.9v30.5h4.9v-15.6c0-3.5,0.8-6.3,2.3-8.3
			c1.4-1.8,3-2.7,5-2.7c1.6,0,2.9,0.3,3.7,1v-5.1c-0.7-0.3-1.6-0.4-2.9-0.4C244.1,177.9,242.5,178.4,241.1,179.5z"/>
		<polygon id="XMLID_52_" class="st1" points="140.5,171.9 140.6,171.9 156.5,208.9 158.9,208.9 174.8,171.9 174.9,171.9 
			174.5,208.9 179.5,208.9 179.5,166.2 173.2,166.2 157.8,201.1 157.5,201.1 142.5,166.2 135.9,166.2 135.9,208.9 140.7,208.9 		"/>
		<polygon id="XMLID_53_" class="st1" points="213.1,317.7 152.9,223 135.8,223 135.8,335.1 149,335.1 149,239 210.2,335.1 
			226.1,335.1 226.1,223 213.1,223 		"/>
	</g>
</g>
</svg>
